<?xml version="1.0" standalone="no"?>
<!DOCTYPE svg PUBLIC "-//W3C//DTD SVG 20010904//EN"
 "http://www.w3.org/TR/2001/REC-SVG-20010904/DTD/svg10.dtd">
<svg version="1.0" xmlns="http://www.w3.org/2000/svg"
 width="100.000000pt" height="100.000000pt" viewBox="0 0 100.000000 100.000000"
 preserveAspectRatio="xMidYMid meet">
<g transform="translate(0.000000,100.000000) scale(0.100000,-0.100000)"
fill="#000000" stroke="none">
<path d="M100 655 c0 -162 2 -295 4 -295 3 0 51 29 109 65 l104 65 -9 58 c-8
50 -6 63 13 102 26 54 102 130 128 130 11 0 27 -7 35 -16 15 -14 17 -14 32 0
25 25 51 19 94 -23 l40 -39 125 77 124 76 1 48 0 47 -400 0 -400 0 0 -295z
m416 272 l359 -2 2 -25 c3 -27 -33 -58 -132 -115 -27 -16 -52 -32 -55 -36 -11
-16 -37 -12 -72 11 -21 14 -36 31 -33 38 2 6 -1 12 -7 12 -7 0 -3 7 8 16 18
14 18 15 -4 4 -12 -6 -20 -15 -17 -19 6 -11 -24 -23 -37 -15 -6 4 -14 0 -19
-7 -6 -10 -11 -11 -16 -3 -10 13 -85 16 -77 3 3 -5 0 -9 -5 -9 -6 0 -24 -14
-40 -30 -16 -17 -31 -27 -33 -23 -3 4 -4 3 -2 -3 1 -7 -6 -21 -17 -33 -11 -12
-15 -21 -9 -21 6 0 -1 -11 -15 -25 -25 -26 -33 -41 -15 -30 6 3 10 -1 10 -10
0 -9 -4 -13 -10 -10 -11 7 -14 -8 -4 -18 11 -10 13 -67 3 -73 -5 -3 -6 -10 -3
-16 5 -7 2 -8 -6 -3 -7 4 -15 3 -19 -2 -11 -18 -110 -75 -119 -69 -9 6 -15
479 -6 508 3 9 11 15 18 12 7 -3 175 -6 372 -7z"/>
<path d="M600 791 c0 -5 7 -12 16 -15 14 -5 15 -4 4 9 -14 17 -20 19 -20 6z"/>
<path d="M256 567 c3 -10 9 -15 12 -12 3 3 0 11 -7 18 -10 9 -11 8 -5 -6z"/>
<path d="M259 513 c-13 -16 -12 -17 4 -4 9 7 17 15 17 17 0 8 -8 3 -21 -13z"/>
<path d="M927 879 c7 -7 15 -10 18 -7 3 3 -2 9 -12 12 -14 6 -15 5 -6 -5z"/>
<path d="M437 749 c-30 -17 -88 -80 -82 -88 2 -5 -4 -16 -15 -26 -31 -28 -26
-55 10 -55 17 0 33 -6 36 -14 3 -8 13 -12 25 -9 23 6 39 -25 18 -38 -9 -5 -22
0 -39 16 -36 35 -60 33 -60 -4 0 -20 6 -32 18 -35 10 -3 23 -19 29 -36 19 -50
81 -61 104 -18 8 15 7 24 -7 39 -9 10 -17 32 -16 49 0 23 -9 38 -41 65 -31 27
-38 38 -29 47 20 20 81 -58 82 -104 0 -21 5 -38 10 -38 6 0 10 22 10 48 0 37
-5 54 -20 67 -27 24 -54 81 -45 94 9 16 35 13 41 -4 4 -8 0 -22 -7 -31 -10
-13 -9 -19 9 -37 l22 -21 0 51 c0 61 -24 99 -53 82z m-53 -158 c-2 -3 -12 3
-22 13 -16 17 -16 18 5 5 12 -7 20 -15 17 -18z m56 -122 c0 -14 -5 -19 -17
-17 -26 5 -29 38 -4 38 15 0 21 -6 21 -21z"/>
<path d="M415 470 c3 -5 8 -10 11 -10 2 0 4 5 4 10 0 6 -5 10 -11 10 -5 0 -7
-4 -4 -10z"/>
<path d="M525 737 c-21 -29 -22 -177 -1 -177 8 0 16 6 19 14 7 19 73 50 86 41
14 -8 14 -32 1 -40 -6 -4 -18 -1 -26 6 -12 10 -20 7 -42 -14 -16 -15 -33 -27
-40 -27 -8 0 -12 -17 -12 -45 0 -47 25 -85 55 -85 19 0 65 44 65 62 0 7 9 19
21 26 12 8 19 22 18 35 -1 12 1 35 6 50 5 21 3 33 -11 48 -10 11 -19 27 -20
36 -4 26 -22 39 -36 25 -7 -7 -20 -12 -30 -12 -21 0 -23 -11 -6 -28 10 -10 9
-16 -3 -28 -13 -13 -17 -13 -27 -1 -17 20 12 77 39 77 22 0 24 10 7 32 -22 27
-46 29 -63 5z m18 -12 c-3 -9 -8 -14 -10 -11 -3 3 -2 9 2 15 9 16 15 13 8 -4z
m82 -196 c0 -9 -9 -13 -28 -11 -32 3 -46 -20 -27 -43 10 -12 10 -18 0 -31 -12
-13 -15 -13 -28 0 -9 8 -11 19 -6 27 4 8 9 22 9 32 2 20 24 39 36 31 4 -2 11
0 14 6 9 15 30 7 30 -11z m-19 -54 c-1 -8 -5 -17 -8 -21 -5 -4 -4 16 1 34 3 9
9 -1 7 -13z"/>
<path d="M916 748 c3 -5 9 -7 12 -4 3 3 11 1 19 -5 9 -9 13 -8 13 0 0 6 -3 11
-7 12 -5 0 -16 2 -26 4 -9 2 -14 -1 -11 -7z"/>
<path d="M794 720 c0 -13 4 -16 10 -10 7 7 7 13 0 20 -6 6 -10 3 -10 -10z"/>
<path d="M787 634 c-88 -58 -97 -67 -95 -92 2 -27 -7 -43 -67 -117 -29 -36
-77 -43 -104 -16 l-21 21 -21 -21 c-14 -14 -29 -19 -46 -16 -20 4 -60 -17
-177 -93 l-151 -97 -3 -76 -3 -77 401 0 400 0 0 325 c0 179 -3 325 -7 324 -5
0 -52 -29 -106 -65z m86 -269 l-2 -286 -363 -3 c-200 -1 -368 -1 -374 1 -6 2
-9 26 -6 61 5 70 11 80 14 21 l1 -44 6 50 c4 32 10 49 18 47 7 -1 13 2 13 8 0
5 6 10 14 10 8 0 18 5 22 12 5 7 3 8 -6 3 -9 -5 -11 -4 -6 4 4 6 11 9 15 7 11
-7 62 29 54 38 -4 4 1 4 11 0 12 -5 17 -4 13 3 -6 9 -1 11 42 15 14 2 17 6 10
14 -7 8 -6 15 2 20 8 4 9 3 5 -4 -5 -8 1 -12 15 -12 17 0 19 3 10 13 -8 10 -7
14 4 14 8 0 12 -4 9 -8 -2 -4 1 -9 7 -11 8 -3 6 -10 -5 -21 -9 -9 -17 -19 -17
-21 -3 -23 -13 -46 -21 -46 -6 0 -7 -11 -4 -26 6 -23 4 -26 -11 -20 -13 5 -15
4 -7 -4 14 -14 6 -62 -10 -53 -7 3 -6 1 1 -7 14 -15 71 -21 79 -9 2 5 12 6 22
3 14 -5 15 -4 2 5 -13 9 -13 12 -1 23 10 10 12 10 7 1 -4 -7 -2 -13 3 -13 6 0
11 8 12 18 0 10 3 12 6 5 2 -7 13 -13 24 -13 12 0 16 -5 13 -14 -3 -8 0 -17 7
-22 8 -5 10 -3 4 6 -6 10 -4 11 6 4 17 -11 59 -13 53 -2 -6 10 20 11 30 1 12
-13 40 -9 53 7 18 22 17 194 -2 229 -13 26 -13 30 0 41 8 7 15 21 15 32 0 10
4 17 9 13 5 -3 12 4 16 15 3 11 11 20 16 20 6 0 7 -5 3 -12 -4 -7 -3 -8 5 -4
9 6 9 11 0 22 -6 8 -7 14 -2 14 5 0 9 13 8 28 -1 21 3 28 18 29 11 1 25 7 31
13 8 8 6 9 -9 4 -11 -4 -17 -4 -13 0 3 4 13 8 21 10 8 1 26 10 41 20 23 14 30
15 44 4 12 -9 11 -6 -2 10 -19 22 -19 22 -1 16 12 -5 16 -4 11 4 -4 7 -2 10 6
7 10 -4 13 -64 11 -290z m-338 3 c-3 6 -1 12 4 12 6 0 11 -5 11 -11 0 -6 7 -8
16 -5 13 5 14 3 7 -6 -6 -7 -9 -40 -8 -73 2 -33 1 -52 -2 -42 -2 9 -9 14 -15
11 -7 -5 -8 -2 -3 6 4 7 2 16 -6 22 -11 8 -10 9 4 4 11 -3 16 -2 12 4 -3 6
-14 10 -23 10 -14 0 -15 2 -2 10 12 8 12 10 -3 16 -9 3 -14 10 -11 15 3 5 0 9
-6 9 -6 0 -9 4 -6 9 4 5 1 11 -6 13 -6 2 -8 10 -4 16 5 9 13 6 27 -10 12 -13
18 -17 14 -10z m-9 -113 l41 -105 -24 0 c-15 0 -27 9 -35 25 -9 20 -17 24 -51
22 -31 -2 -42 -8 -48 -25 -6 -14 -17 -22 -33 -22 l-24 0 41 105 c38 94 45 105
67 105 22 0 29 -11 66 -105z m114 0 l0 -105 -25 0 -25 0 0 105 0 105 25 0 25
0 0 -105z"/>
<path d="M318 93 c45 -2 119 -2 165 0 45 1 8 3 -83 3 -91 0 -128 -2 -82 -3z"/>
<path d="M743 93 c15 -2 37 -2 50 0 12 2 0 4 -28 4 -27 0 -38 -2 -22 -4z"/>
<path d="M448 288 c-3 -13 -9 -31 -13 -40 -6 -15 -2 -18 23 -18 30 0 31 1 20
33 -15 44 -25 53 -30 25z"/>
<path d="M410 540 c0 -5 5 -10 11 -10 5 0 7 5 4 10 -3 6 -8 10 -11 10 -2 0 -4
-4 -4 -10z"/>
<path d="M216 381 c-4 -5 -2 -12 3 -15 5 -4 12 -2 15 3 4 5 2 12 -3 15 -5 4
-12 2 -15 -3z"/>
<path d="M94 248 l-19 -23 25 20 c14 11 27 21 29 22 2 2 0 3 -6 3 -5 0 -18
-10 -29 -22z"/>
</g>
</svg>
