<svg id="svg" version="1.1" width="812" height="925" viewBox="0 0 812 925" xmlns="http://www.w3.org/2000/svg"><path d="M0.000 305.559 C 0.000 549.738,0.251 610.968,1.250 610.371 C 4.669 608.328,33.344 590.250,78.000 561.985 C 105.225 544.754,137.850 524.151,150.500 516.202 C 163.150 508.253,182.050 496.329,192.500 489.703 C 202.950 483.077,213.841 476.177,216.703 474.370 L 221.905 471.085 218.624 465.636 C 212.258 455.064,208.351 438.522,209.498 427.000 C 210.264 419.314,212.459 410.202,214.655 405.598 C 216.189 402.380,216.151 402.192,213.147 398.044 C 204.254 385.768,201.983 366.252,207.002 345.238 C 210.641 330.002,220.124 314.753,230.911 306.791 L 236.724 302.500 237.191 294.000 C 237.982 279.578,244.872 263.053,254.682 252.049 C 260.379 245.658,271.976 238.073,280.830 234.946 C 288.127 232.369,288.171 232.332,290.431 226.771 C 297.344 209.763,311.379 195.491,329.940 186.596 C 340.307 181.628,349.946 179.684,361.811 180.167 C 370.159 180.508,372.452 181.009,378.373 183.786 C 382.153 185.559,387.426 188.611,390.092 190.568 C 394.906 194.102,403.213 205.265,405.953 211.885 L 407.354 215.270 409.538 210.385 C 416.142 195.613,429.571 184.143,443.799 181.124 C 451.299 179.533,464.536 179.731,471.540 181.539 C 493.424 187.188,514.488 205.383,523.389 226.327 C 526.078 232.653,526.376 232.964,531.341 234.598 C 541.667 237.997,547.534 241.498,555.244 248.860 L 562.988 256.254 573.744 249.439 C 579.660 245.691,594.625 236.258,607.000 228.477 C 619.375 220.697,639.400 208.026,651.500 200.321 C 690.130 175.722,721.405 155.984,764.500 129.005 C 787.600 114.544,807.737 101.846,809.250 100.788 L 812.000 98.864 812.000 49.432 L 812.000 0.000 406.000 0.000 L 0.000 0.000 0.000 305.559 M343.977 204.345 C 335.651 207.285,327.121 212.748,320.463 219.407 C 314.378 225.491,311.825 230.068,307.576 242.500 L 304.500 251.500 298.287 252.094 C 285.461 253.322,271.148 263.617,264.339 276.513 C 259.218 286.211,257.739 292.826,258.145 304.221 L 258.500 314.205 252.000 316.783 C 234.554 323.700,222.509 346.564,224.395 369.181 C 224.753 373.477,225.475 378.118,225.998 379.495 L 226.950 382.000 249.074 382.000 C 266.797 382.000,271.835 382.302,274.401 383.520 C 276.163 384.356,283.173 390.656,289.980 397.520 C 296.787 404.384,302.784 410.000,303.307 410.000 C 303.830 410.000,305.974 408.449,308.072 406.554 C 317.426 398.103,332.872 399.639,340.658 409.795 C 349.491 421.317,345.755 437.957,332.895 444.365 C 320.307 450.638,308.407 446.037,300.855 431.978 C 300.110 430.591,292.709 422.828,284.409 414.728 L 269.318 400.000 255.826 400.000 L 242.335 400.000 239.101 404.024 C 234.774 409.408,231.145 417.566,229.757 425.029 C 227.493 437.207,232.292 452.052,241.769 462.184 C 248.319 469.187,256.677 473.618,269.602 476.943 L 273.705 477.998 274.341 486.280 C 275.598 502.627,281.154 514.812,293.087 527.395 C 313.079 548.476,343.675 557.163,364.441 547.655 C 371.271 544.529,380.024 536.473,385.160 528.587 C 389.708 521.603,395.000 505.890,395.000 499.370 C 395.000 494.788,394.921 494.682,380.647 480.117 C 372.753 472.061,365.553 464.037,364.647 462.285 C 363.231 459.546,363.000 455.120,363.000 430.744 C 363.000 402.900,362.959 402.334,360.750 399.368 C 359.512 397.707,346.927 385.126,332.783 371.409 L 307.066 346.470 301.072 345.331 C 293.565 343.904,289.783 341.249,286.963 335.425 C 281.301 323.727,289.898 310.534,303.071 310.704 C 313.971 310.845,321.948 320.348,320.019 330.895 L 319.264 335.025 347.017 362.262 C 362.282 377.243,375.610 391.075,376.635 393.000 C 378.298 396.121,378.554 399.733,379.000 426.345 L 379.500 456.189 387.000 463.339 L 394.500 470.489 394.780 417.495 L 395.059 364.500 372.114 342.000 C 359.494 329.625,348.158 317.978,346.922 316.118 C 343.955 311.650,342.035 303.155,342.016 294.407 L 342.000 287.313 336.982 283.082 C 327.815 275.352,324.827 264.921,329.001 255.219 C 333.917 243.792,345.165 238.572,357.142 242.161 C 362.317 243.711,368.846 249.451,371.114 254.444 C 375.673 264.482,371.893 277.663,362.841 283.290 L 358.000 286.299 358.000 294.199 C 358.000 299.058,358.543 303.139,359.411 304.800 C 360.187 306.285,368.400 314.925,377.661 324.000 L 394.500 340.500 394.777 299.500 C 394.999 266.458,394.750 256.411,393.490 247.738 C 391.768 235.878,388.993 225.912,385.476 218.960 C 382.702 213.478,375.413 206.544,369.690 203.946 C 363.625 201.192,352.414 201.366,343.977 204.345 M445.385 203.617 C 432.833 208.069,424.961 221.328,420.953 244.774 C 419.138 255.392,419.000 261.347,419.000 329.099 L 419.000 402.000 427.250 401.930 C 431.788 401.891,436.230 401.554,437.122 401.180 C 438.014 400.806,448.048 391.500,459.418 380.500 C 470.788 369.500,481.941 359.488,484.203 358.250 C 487.467 356.464,489.913 356.000,496.063 356.000 L 503.812 356.000 507.381 351.033 C 518.919 334.972,542.938 339.784,548.130 359.197 C 552.870 376.920,534.031 393.415,517.433 386.073 C 511.482 383.441,508.425 380.709,505.882 375.750 C 503.982 372.044,503.888 372.000,497.935 372.000 L 491.910 372.000 469.776 393.471 C 457.602 405.280,446.192 415.630,444.420 416.471 C 442.130 417.558,437.986 418.000,430.099 418.000 L 419.000 418.000 419.000 459.840 C 419.000 497.900,419.174 502.362,420.930 509.226 C 426.226 529.933,439.620 545.100,456.460 549.458 C 464.048 551.421,478.612 551.414,487.000 549.443 C 498.795 546.671,507.507 541.554,517.500 531.529 C 531.307 517.679,537.544 505.033,538.594 488.762 C 539.438 475.687,538.885 476.532,547.483 475.195 C 551.629 474.551,557.306 472.865,560.100 471.449 C 583.156 459.766,591.262 429.353,577.012 408.000 C 575.360 405.525,574.007 403.190,574.004 402.811 C 574.002 402.432,575.875 399.957,578.167 397.311 C 584.035 390.537,587.685 382.074,589.136 371.879 C 592.328 349.456,581.152 326.634,562.069 316.606 L 555.347 313.074 555.781 302.287 C 556.149 293.111,555.891 290.546,554.050 285.113 C 551.363 277.180,546.720 269.864,540.653 264.000 C 536.295 259.788,526.947 254.070,524.339 254.022 C 523.701 254.010,522.223 255.975,521.054 258.388 C 518.428 263.813,509.470 272.431,503.766 275.020 C 500.248 276.617,497.187 276.960,486.307 276.978 C 470.155 277.005,469.996 277.127,470.008 289.473 L 470.015 297.500 474.034 299.795 C 482.513 304.637,487.267 315.551,485.004 324.982 C 481.254 340.614,463.960 347.827,450.372 339.426 C 437.029 331.177,436.306 310.524,449.039 301.376 L 453.743 297.997 454.190 287.146 C 454.577 277.750,454.984 275.705,457.221 271.897 C 462.287 263.275,467.794 261.000,483.602 261.000 C 489.838 261.000,496.012 260.496,497.372 259.876 C 498.729 259.258,501.283 256.741,503.049 254.283 C 506.031 250.130,506.224 249.375,505.764 243.644 C 504.115 223.101,478.699 201.811,456.145 202.079 C 452.490 202.122,447.648 202.815,445.385 203.617 M345.856 256.476 C 340.213 259.628,340.333 268.569,346.059 271.530 C 350.302 273.725,352.821 273.333,356.200 269.954 C 358.823 267.331,359.164 266.400,358.655 263.263 C 357.595 256.729,351.341 253.412,345.856 256.476 M795.000 266.745 C 780.335 276.163,722.792 312.967,636.649 368.025 C 609.053 385.663,607.689 386.681,605.281 391.433 C 603.896 394.165,601.707 397.998,600.415 399.950 L 598.066 403.500 600.532 410.292 C 603.762 419.190,605.082 431.222,603.825 440.299 C 600.542 463.990,582.941 485.955,562.377 492.024 L 558.255 493.240 557.761 499.370 C 556.277 517.821,535.007 547.955,515.148 559.742 C 499.032 569.307,486.819 572.440,468.180 571.790 C 457.822 571.429,454.157 570.871,448.165 568.745 C 431.167 562.712,418.084 551.463,409.755 535.720 L 407.225 530.939 403.983 536.684 C 393.921 554.513,382.059 564.188,362.965 570.138 C 351.862 573.598,335.997 573.397,322.912 569.631 L 313.324 566.871 245.412 610.286 C 161.467 663.951,57.684 730.353,24.750 751.469 L 0.000 767.338 0.000 846.169 L 0.000 925.000 406.000 925.000 L 812.000 925.000 812.000 590.500 C 812.000 406.525,811.888 256.034,811.750 256.075 C 811.612 256.116,804.075 260.918,795.000 266.745 M459.357 311.992 C 456.390 313.189,454.000 316.896,454.000 320.299 C 454.000 323.724,458.835 329.000,461.973 329.000 C 464.871 329.000,469.620 326.432,470.379 324.455 C 471.389 321.822,471.029 316.621,469.718 314.913 C 467.066 311.459,463.305 310.398,459.357 311.992 M520.201 358.028 C 515.395 362.504,516.706 370.144,522.710 372.652 C 532.001 376.534,539.103 363.388,530.841 357.601 C 527.691 355.395,522.817 355.590,520.201 358.028 M319.357 415.970 C 313.592 418.354,312.357 425.511,316.923 430.077 C 320.181 433.335,322.732 433.707,326.928 431.537 C 330.148 429.872,331.000 428.210,331.000 423.593 C 331.000 418.134,324.467 413.857,319.357 415.970 M527.480 418.287 C 537.506 423.965,539.021 439.101,530.373 447.186 C 523.508 453.605,514.992 453.666,505.829 447.363 C 502.286 444.926,501.700 444.849,488.995 445.169 L 475.831 445.500 472.915 448.766 L 470.000 452.032 470.000 466.968 L 470.000 481.904 474.470 484.979 C 480.311 488.998,483.572 493.397,485.040 499.237 C 490.344 520.336,465.255 536.551,448.577 522.803 C 436.762 513.064,437.590 494.079,450.204 485.507 L 453.801 483.063 454.196 465.782 C 454.641 446.368,455.340 443.679,461.506 437.691 C 463.566 435.690,467.533 432.916,470.322 431.527 C 474.920 429.235,476.541 429.000,487.717 429.000 L 500.041 429.000 503.271 424.402 C 505.047 421.874,508.075 418.969,510.000 417.947 C 514.948 415.320,522.500 415.467,527.480 418.287 M335.658 473.323 C 339.348 475.231,343.736 479.621,345.809 483.479 C 347.980 487.519,347.980 498.481,345.809 502.521 C 341.621 510.314,334.958 514.418,326.500 514.413 C 313.640 514.406,304.968 505.672,305.022 492.782 C 305.061 483.419,310.471 475.615,319.239 472.275 C 323.223 470.758,331.750 471.302,335.658 473.323 M321.201 487.028 C 318.186 489.836,317.552 493.233,319.382 496.771 C 321.852 501.548,326.883 502.453,331.365 498.927 C 333.398 497.329,334.000 495.973,334.000 493.000 C 334.000 486.178,326.080 482.482,321.201 487.028 M459.465 496.952 C 454.552 498.943,452.890 504.844,455.888 509.655 C 459.624 515.649,467.877 514.933,470.616 508.377 C 472.517 503.826,471.088 499.614,466.909 497.453 C 463.779 495.834,462.444 495.744,459.465 496.952 M400.047 631.750 C 405.863 646.483,466.079 798.095,474.722 819.768 C 475.124 820.775,470.152 820.980,450.515 820.768 L 425.803 820.500 416.610 798.000 L 407.416 775.500 364.958 775.500 L 322.500 775.500 314.018 798.250 L 305.536 821.000 280.755 821.000 L 255.973 821.000 257.572 817.250 C 258.835 814.286,335.638 622.043,339.072 613.250 L 339.950 611.000 365.902 611.000 L 391.854 611.000 400.047 631.750 M548.000 716.000 L 548.000 821.000 524.500 821.000 L 501.000 821.000 501.000 716.000 L 501.000 611.000 524.500 611.000 L 548.000 611.000 548.000 716.000 M364.541 661.707 C 359.876 673.559,337.000 735.282,337.000 736.017 C 337.000 736.638,347.314 737.000,365.000 737.000 C 386.746 737.000,392.995 736.721,392.975 735.750 C 392.962 735.063,392.110 732.025,391.083 729.000 C 388.443 721.226,365.958 660.624,365.569 660.235 C 365.392 660.059,364.929 660.721,364.541 661.707 " stroke="none" fill="black" fill-rule="evenodd"/></svg>