<?xml version="1.0" standalone="no"?> <!DOCTYPE svg PUBLIC "-//W3C//DTD SVG 20010904//EN" "http://www.w3.org/TR/2001/REC-SVG-20010904/DTD/svg10.dtd"> <svg version="1.0" xmlns="http://www.w3.org/2000/svg" width="400.000000pt" height="400.000000pt" viewBox="0 0 400.000000 400.000000" preserveAspectRatio="xMidYMid meet"> <g transform="translate(0.000000,400.000000) scale(0.100000,-0.100000)" fill="#ffffff" stroke="none"> <path d="M884 3716 c-55 -29 -84 -54 -116 -102 l-28 -40 0 -1589 0 -1589 27 -40 c37 -55 58 -72 122 -101 l53 -25 1047 0 1046 0 46 23 c91 44 138 102 147 180 4 29 5 750 2 1602 l-5 1550 -25 35 c-36 50 -58 68 -119 95 l-53 25 -1052 -1 c-1049 -2 -1051 -2 -1092 -23z m1189 -319 c35 -31 37 -36 37 -94 0 -43 -5 -64 -16 -74 -39 -32 -69 -214 -38 -239 8 -7 98 -8 266 -4 l254 7 23 -36 c18 -30 21 -44 15 -86 -10 -77 0 -84 107 -76 86 7 122 -1 141 -29 4 -6 8 -92 8 -192 l0 -180 -32 -24 c-30 -22 -35 -23 -111 -13 -120 16 -130 7 -115 -106 10 -74 -7 -140 -37 -141 -5 -1 -274 -1 -598 -1 l-587 -1 -20 24 c-18 21 -19 33 -13 119 7 120 5 122 -113 107 -77 -11 -82 -10 -112 12 l-32 24 0 181 c0 230 -6 220 132 220 130 0 132 2 124 77 -5 52 -3 64 16 90 l21 31 257 -7 c302 -8 282 -16 271 104 -8 87 -18 116 -45 140 -11 9 -16 30 -16 73 0 83 43 127 125 127 44 0 57 -5 88 -33z m963 -1620 c31 -36 30 -55 -1 -90 l-26 -27 -1028 0 -1027 0 -22 30 c-27 36 -27 50 -2 83 27 35 -56 32 1074 32 l1008 0 24 -28z m2 -377 c27 -36 27 -48 2 -80 l-19 -25 -1036 0 -1036 0 -19 25 c-25 32 -25 45 1 81 l20 29 1033 0 1032 0 22 -30z m-5 -368 c34 -35 34 -59 0 -94 l-27 -28 -1020 0 -1020 0 -28 27 c-35 34 -35 59 -1 95 l27 28 1021 0 1021 0 27 -28z m-20 -361 c41 -16 53 -63 26 -100 l-23 -31 -1031 0 -1031 0 -23 31 c-26 36 -15 84 23 99 29 12 2028 12 2059 1z"/> <path d="M1682 2670 c-87 -35 -104 -150 -33 -222 45 -47 137 -41 185 12 95 106 -18 263 -152 210z"/> <path d="M2188 2673 c-41 -7 -88 -76 -88 -130 0 -145 215 -173 261 -35 33 100 -56 185 -173 165z"/> </g> </svg>